<mxfile host="app.diagrams.net" agent="Mozilla/5.0 (Windows NT 10.0; Win64; x64) AppleWebKit/537.36 (KHTML, like Gecko) Chrome/130.0.0.0 Safari/537.36 Edg/130.0.0.0" version="24.8.2">
  <diagram name="Page-1" id="U8ygI98Kg4KSIbRNMMf-">
    <mxGraphModel grid="1" page="1" gridSize="10" guides="1" tooltips="1" connect="1" arrows="1" fold="1" pageScale="1" pageWidth="1654" pageHeight="2336" math="0" shadow="0">
      <root>
        <mxCell id="0" />
        <mxCell id="1" parent="0" />
        <mxCell id="irju6RyObrGoXXalBrM_-1" value="&lt;font size=&quot;3&quot;&gt;START&lt;/font&gt;" style="ellipse;whiteSpace=wrap;html=1;" vertex="1" parent="1">
          <mxGeometry x="390" y="10" width="110" height="70" as="geometry" />
        </mxCell>
        <mxCell id="irju6RyObrGoXXalBrM_-2" value="" style="endArrow=classic;html=1;rounded=0;exitX=0.5;exitY=1;exitDx=0;exitDy=0;" edge="1" parent="1" source="irju6RyObrGoXXalBrM_-1">
          <mxGeometry width="50" height="50" relative="1" as="geometry">
            <mxPoint x="400" y="190" as="sourcePoint" />
            <mxPoint x="445" y="140" as="targetPoint" />
          </mxGeometry>
        </mxCell>
        <mxCell id="irju6RyObrGoXXalBrM_-3" value="enter sideA&lt;div&gt;enter sideB&lt;/div&gt;&lt;div&gt;enter sideC&lt;/div&gt;" style="shape=parallelogram;perimeter=parallelogramPerimeter;whiteSpace=wrap;html=1;fixedSize=1;" vertex="1" parent="1">
          <mxGeometry x="355" y="140" width="180" height="60" as="geometry" />
        </mxCell>
        <mxCell id="irju6RyObrGoXXalBrM_-4" value="" style="endArrow=classic;html=1;rounded=0;exitX=0.5;exitY=1;exitDx=0;exitDy=0;" edge="1" parent="1" source="irju6RyObrGoXXalBrM_-3">
          <mxGeometry width="50" height="50" relative="1" as="geometry">
            <mxPoint x="460" y="280" as="sourcePoint" />
            <mxPoint x="445" y="270" as="targetPoint" />
          </mxGeometry>
        </mxCell>
        <mxCell id="irju6RyObrGoXXalBrM_-5" value="&lt;font style=&quot;font-size: 12px;&quot;&gt;if sideA==sideB==sideC&lt;/font&gt;&lt;div&gt;&lt;br&gt;&lt;/div&gt;" style="rhombus;whiteSpace=wrap;html=1;" vertex="1" parent="1">
          <mxGeometry x="300" y="270" width="290" height="160" as="geometry" />
        </mxCell>
        <mxCell id="irju6RyObrGoXXalBrM_-6" value="" style="endArrow=classic;html=1;rounded=0;exitX=0;exitY=0.5;exitDx=0;exitDy=0;" edge="1" parent="1" source="irju6RyObrGoXXalBrM_-5">
          <mxGeometry width="50" height="50" relative="1" as="geometry">
            <mxPoint x="160" y="360" as="sourcePoint" />
            <mxPoint x="210" y="520" as="targetPoint" />
            <Array as="points">
              <mxPoint x="210" y="350" />
            </Array>
          </mxGeometry>
        </mxCell>
        <mxCell id="irju6RyObrGoXXalBrM_-11" value="&lt;font size=&quot;3&quot;&gt;Y&lt;/font&gt;" style="edgeLabel;html=1;align=center;verticalAlign=middle;resizable=0;points=[];" connectable="0" vertex="1" parent="irju6RyObrGoXXalBrM_-6">
          <mxGeometry x="-0.6846" y="1" relative="1" as="geometry">
            <mxPoint as="offset" />
          </mxGeometry>
        </mxCell>
        <mxCell id="qejMQS8b88TBcWGD_SYk-14" style="edgeStyle=orthogonalEdgeStyle;rounded=0;orthogonalLoop=1;jettySize=auto;html=1;exitX=0.5;exitY=1;exitDx=0;exitDy=0;" edge="1" parent="1" source="qejMQS8b88TBcWGD_SYk-2">
          <mxGeometry relative="1" as="geometry">
            <mxPoint x="560" y="830" as="targetPoint" />
            <Array as="points">
              <mxPoint x="190" y="820" />
              <mxPoint x="190" y="820" />
            </Array>
          </mxGeometry>
        </mxCell>
        <mxCell id="qejMQS8b88TBcWGD_SYk-2" value="print(triangle is equilateral)" style="shape=parallelogram;perimeter=parallelogramPerimeter;whiteSpace=wrap;html=1;fixedSize=1;" vertex="1" parent="1">
          <mxGeometry x="100" y="520" width="180" height="60" as="geometry" />
        </mxCell>
        <mxCell id="qejMQS8b88TBcWGD_SYk-4" value="" style="endArrow=classic;html=1;rounded=0;" edge="1" parent="1">
          <mxGeometry width="50" height="50" relative="1" as="geometry">
            <mxPoint x="590" y="350" as="sourcePoint" />
            <mxPoint x="720" y="470" as="targetPoint" />
            <Array as="points">
              <mxPoint x="720" y="350" />
            </Array>
          </mxGeometry>
        </mxCell>
        <mxCell id="qejMQS8b88TBcWGD_SYk-18" value="N" style="edgeLabel;html=1;align=center;verticalAlign=middle;resizable=0;points=[];" connectable="0" vertex="1" parent="qejMQS8b88TBcWGD_SYk-4">
          <mxGeometry x="-0.5385" y="1" relative="1" as="geometry">
            <mxPoint as="offset" />
          </mxGeometry>
        </mxCell>
        <mxCell id="qejMQS8b88TBcWGD_SYk-6" style="edgeStyle=orthogonalEdgeStyle;rounded=0;orthogonalLoop=1;jettySize=auto;html=1;exitX=0;exitY=0.5;exitDx=0;exitDy=0;" edge="1" parent="1" source="qejMQS8b88TBcWGD_SYk-5">
          <mxGeometry relative="1" as="geometry">
            <mxPoint x="500" y="600" as="targetPoint" />
            <Array as="points">
              <mxPoint x="575" y="510" />
              <mxPoint x="575" y="511" />
            </Array>
          </mxGeometry>
        </mxCell>
        <mxCell id="qejMQS8b88TBcWGD_SYk-19" value="Y" style="edgeLabel;html=1;align=center;verticalAlign=middle;resizable=0;points=[];" connectable="0" vertex="1" parent="qejMQS8b88TBcWGD_SYk-6">
          <mxGeometry x="-0.3895" y="-1" relative="1" as="geometry">
            <mxPoint as="offset" />
          </mxGeometry>
        </mxCell>
        <mxCell id="qejMQS8b88TBcWGD_SYk-8" style="edgeStyle=orthogonalEdgeStyle;rounded=0;orthogonalLoop=1;jettySize=auto;html=1;exitX=1;exitY=0.5;exitDx=0;exitDy=0;" edge="1" parent="1" source="qejMQS8b88TBcWGD_SYk-5">
          <mxGeometry relative="1" as="geometry">
            <mxPoint x="960" y="600" as="targetPoint" />
            <Array as="points">
              <mxPoint x="880" y="510" />
              <mxPoint x="880" y="511" />
            </Array>
          </mxGeometry>
        </mxCell>
        <mxCell id="qejMQS8b88TBcWGD_SYk-20" value="N" style="edgeLabel;html=1;align=center;verticalAlign=middle;resizable=0;points=[];" connectable="0" vertex="1" parent="qejMQS8b88TBcWGD_SYk-8">
          <mxGeometry x="-0.2396" relative="1" as="geometry">
            <mxPoint as="offset" />
          </mxGeometry>
        </mxCell>
        <mxCell id="qejMQS8b88TBcWGD_SYk-5" value="sideA==sideB!=sideC" style="rhombus;whiteSpace=wrap;html=1;" vertex="1" parent="1">
          <mxGeometry x="640" y="470" width="160" height="80" as="geometry" />
        </mxCell>
        <mxCell id="qejMQS8b88TBcWGD_SYk-13" style="edgeStyle=orthogonalEdgeStyle;rounded=0;orthogonalLoop=1;jettySize=auto;html=1;exitX=0.5;exitY=1;exitDx=0;exitDy=0;" edge="1" parent="1" source="qejMQS8b88TBcWGD_SYk-7">
          <mxGeometry relative="1" as="geometry">
            <mxPoint x="560" y="800" as="targetPoint" />
            <Array as="points">
              <mxPoint x="495" y="790" />
              <mxPoint x="495" y="790" />
            </Array>
          </mxGeometry>
        </mxCell>
        <mxCell id="qejMQS8b88TBcWGD_SYk-7" value="print(triangle is isosceles)" style="shape=parallelogram;perimeter=parallelogramPerimeter;whiteSpace=wrap;html=1;fixedSize=1;" vertex="1" parent="1">
          <mxGeometry x="410" y="600" width="170" height="60" as="geometry" />
        </mxCell>
        <mxCell id="qejMQS8b88TBcWGD_SYk-12" style="edgeStyle=orthogonalEdgeStyle;rounded=0;orthogonalLoop=1;jettySize=auto;html=1;exitX=0.5;exitY=1;exitDx=0;exitDy=0;" edge="1" parent="1" source="qejMQS8b88TBcWGD_SYk-10">
          <mxGeometry relative="1" as="geometry">
            <mxPoint x="660" y="800" as="targetPoint" />
            <Array as="points">
              <mxPoint x="955" y="790" />
              <mxPoint x="955" y="790" />
            </Array>
          </mxGeometry>
        </mxCell>
        <mxCell id="qejMQS8b88TBcWGD_SYk-10" value="print(triangle is scalene)" style="shape=parallelogram;perimeter=parallelogramPerimeter;whiteSpace=wrap;html=1;fixedSize=1;" vertex="1" parent="1">
          <mxGeometry x="860" y="600" width="190" height="60" as="geometry" />
        </mxCell>
        <mxCell id="qejMQS8b88TBcWGD_SYk-11" value="" style="ellipse;whiteSpace=wrap;html=1;aspect=fixed;" vertex="1" parent="1">
          <mxGeometry x="570" y="760" width="80" height="80" as="geometry" />
        </mxCell>
        <mxCell id="qejMQS8b88TBcWGD_SYk-15" value="&lt;font style=&quot;font-size: 18px;&quot;&gt;STOP&lt;/font&gt;" style="ellipse;whiteSpace=wrap;html=1;" vertex="1" parent="1">
          <mxGeometry x="560" y="980" width="120" height="80" as="geometry" />
        </mxCell>
        <mxCell id="qejMQS8b88TBcWGD_SYk-17" style="edgeStyle=orthogonalEdgeStyle;rounded=0;orthogonalLoop=1;jettySize=auto;html=1;exitX=0.5;exitY=1;exitDx=0;exitDy=0;entryX=0.424;entryY=0.014;entryDx=0;entryDy=0;entryPerimeter=0;" edge="1" parent="1" source="qejMQS8b88TBcWGD_SYk-11" target="qejMQS8b88TBcWGD_SYk-15">
          <mxGeometry relative="1" as="geometry" />
        </mxCell>
      </root>
    </mxGraphModel>
  </diagram>
</mxfile>
